<?xml version="1.0" encoding="UTF-8" standalone="no"?>
<!DOCTYPE svg PUBLIC "-//W3C//DTD SVG 1.1//EN" "http://www.w3.org/Graphics/SVG/1.1/DTD/svg11.dtd">
<svg width="100%" height="100%" viewBox="0 0 16 16" version="1.1" xmlns="http://www.w3.org/2000/svg" xmlns:xlink="http://www.w3.org/1999/xlink" xml:space="preserve" xmlns:serif="http://www.serif.com/" style="fill-rule:evenodd;clip-rule:evenodd;stroke-linejoin:round;stroke-miterlimit:2;">
    <g transform="matrix(1,0,0,1,-16,0)">
        <g id="android" transform="matrix(0.0557016,0,0,0.0557016,15.6371,-0.396396)">
            <path d="M46.526,100.362C36.632,100.362 28.759,108.235 28.759,118.129L28.759,192.138C28.759,202.032 36.632,209.905 46.526,209.905C56.42,209.905 64.294,202.032 64.294,192.138L64.294,118.129C64.294,108.235 56.42,100.362 46.526,100.362ZM253.75,100.362C243.855,100.362 235.982,108.235 235.982,118.129L235.982,192.138C235.982,202.032 243.855,209.905 253.75,209.905C263.644,209.905 271.517,202.032 271.517,192.138L271.517,118.129C271.517,108.235 263.644,100.362 253.75,100.362Z" style="fill:rgb(164,198,57);fill-rule:nonzero;"/>
            <path d="M120.534,184.818C110.64,184.818 102.766,192.691 102.766,202.586L102.766,276.594C102.766,286.488 110.64,294.361 120.534,294.361C130.428,294.361 138.301,286.488 138.301,276.594L138.301,202.586C138.301,192.691 130.428,184.818 120.534,184.818ZM179.741,184.818C169.846,184.818 161.973,192.691 161.973,202.586L161.973,276.594C161.973,286.488 169.846,294.361 179.741,294.361C189.635,294.361 197.508,286.488 197.508,276.594L197.508,202.586C197.508,192.691 189.635,184.818 179.741,184.818Z" style="fill:rgb(164,198,57);fill-rule:nonzero;"/>
            <path d="M100.943,7.117C100.523,7.121 100.132,7.229 99.746,7.443C98.479,8.145 98.063,9.601 98.767,10.871L111.283,33.482C87.202,46.012 70.937,69.823 70.905,97.151L229.37,97.151C229.337,69.823 213.072,46.012 188.992,33.482L201.508,10.871C202.212,9.601 201.795,8.145 200.528,7.443C200.142,7.229 199.751,7.121 199.331,7.117C198.432,7.108 197.58,7.557 197.1,8.423L184.421,31.278C174.048,26.677 162.414,24.095 150.137,24.095C137.86,24.095 126.226,26.677 115.854,31.278L103.175,8.423C102.695,7.557 101.843,7.108 100.943,7.117ZM70.905,103.409L70.905,218.258C70.905,228.87 79.448,237.413 90.06,237.413L210.215,237.413C220.827,237.413 229.37,228.87 229.37,218.258L229.37,103.409L70.905,103.409Z" style="fill:rgb(164,198,57);fill-rule:nonzero;"/>
            <path d="M113.568,54.923C109.951,54.923 106.956,57.917 106.956,61.534C106.956,65.152 109.951,68.146 113.568,68.146C117.186,68.146 120.18,65.152 120.18,61.534C120.18,57.917 117.186,54.923 113.568,54.923ZM186.706,54.923C183.088,54.923 180.094,57.917 180.094,61.534C180.094,65.152 183.088,68.146 186.706,68.146C190.323,68.146 193.318,65.152 193.318,61.534C193.318,57.917 190.323,54.923 186.706,54.923Z" style="fill:white;fill-rule:nonzero;"/>
        </g>
        <g id="mac">
        </g>
        <g id="linux">
        </g>
        <g id="chrome">
        </g>
    </g>
</svg>
