<?xml version="1.0" encoding="UTF-8" standalone="no"?>
<!DOCTYPE svg PUBLIC "-//W3C//DTD SVG 1.1//EN" "http://www.w3.org/Graphics/SVG/1.1/DTD/svg11.dtd">
<svg width="100%" height="100%" viewBox="0 0 16 16" version="1.1" xmlns="http://www.w3.org/2000/svg" xmlns:xlink="http://www.w3.org/1999/xlink" xml:space="preserve" xmlns:serif="http://www.serif.com/" style="fill-rule:evenodd;clip-rule:evenodd;stroke-linejoin:round;stroke-miterlimit:2;">
    <g transform="matrix(1,0,0,1,-48,0)">
        <g id="android">
        </g>
        <g id="mac">
        </g>
        <g id="linux">
        </g>
        <g id="chrome" transform="matrix(0.608947,0,0,0.608947,48.4549,0.923379)">
            <path d="M11.973,16.414C9.594,16.414 7.659,14.479 7.659,12.1C7.659,9.721 9.594,7.785 11.973,7.785C14.352,7.785 16.288,9.721 16.288,12.1C16.288,14.479 14.352,16.414 11.973,16.414Z" style="fill:rgb(66,133,244);"/>
            <path d="M13.791,17.181C13.187,17.401 12.555,17.512 11.907,17.512C10.635,17.512 9.394,17.065 8.411,16.255C7.614,15.597 7.02,14.732 6.693,13.75L6.691,13.744L1.936,5.509C0.228,8.136 -0.378,11.268 0.23,14.349C0.849,17.487 2.653,20.196 5.31,21.976C6.694,22.904 8.227,23.523 9.867,23.816L13.791,17.181Z" style="fill:rgb(74,174,72);"/>
            <path d="M22.76,6.707C19.79,0.732 12.539,-1.704 6.565,1.265C5.018,2.034 3.66,3.123 2.574,4.456L6.591,11.413C6.852,9.393 8.25,7.606 10.322,6.955C10.822,6.798 11.342,6.714 11.865,6.707L22.76,6.707Z" style="fill:rgb(234,57,57);"/>
            <path d="M11.926,24C14.936,24 17.817,22.871 20.037,20.822C22.268,18.762 23.623,15.959 23.852,12.929C23.983,11.194 23.726,9.417 23.108,7.785L15.252,7.785C16.574,8.832 17.349,10.431 17.342,12.125C17.336,13.345 16.918,14.544 16.16,15.506L11.152,23.975C11.41,23.992 11.67,24 11.926,24L11.926,24Z" style="fill:rgb(254,209,75);"/>
        </g>
        <g transform="matrix(0.0818279,0,0,0.0818279,148.344,-6.52125)">
            <rect x="-1025.1" y="85.339" width="87.327" height="87.327" style="fill:rgb(0,120,212);"/>
            <rect x="-1025.1" y="182.255" width="87.327" height="87.327" style="fill:rgb(0,120,212);"/>
        </g>
    </g>
</svg>
