<?xml version="1.0" encoding="UTF-8" standalone="no"?>
<!DOCTYPE svg PUBLIC "-//W3C//DTD SVG 1.1//EN" "http://www.w3.org/Graphics/SVG/1.1/DTD/svg11.dtd">
<svg width="100%" height="100%" viewBox="0 0 16 16" version="1.1" xmlns="http://www.w3.org/2000/svg" xmlns:xlink="http://www.w3.org/1999/xlink" xml:space="preserve" xmlns:serif="http://www.serif.com/" style="fill-rule:evenodd;clip-rule:evenodd;">
    <g transform="matrix(1,0,0,1,-32,0)">
        <g id="android">
        </g>
        <g id="mac">
        </g>
        <g id="linux" transform="matrix(0.0840219,0,0,0.0840219,39.8606,8.62504)">
            <path d="M-32,-25C-35,-18 -56,4 -54,26C-46,118 -18,56 24,79C24,79 99,37 39,-31C22,-55 37,-74 26,-90C15,-106 -4,-107 -18,-92C-32,-77 -12,-55 -32,-25" style="fill:rgb(51,51,51);fill-rule:nonzero;"/>
            <path d="M42,21C42,21 51,3 34,-10C50,7 40,22 40,22L37,22C36,-13 27,6 14,-56C29,-73 0,-88 0,-60L-9,-60C-8,-84 -29,-72 -17,-55C-18,-18 -40,-3 -40,23C-47,5 -34,-9 -34,-9C-34,-9 -52,6 -41,28C-30,50 -10,45 -24,55C-2,70 32,60 31,28C32,20 53,23 55,25C57,27 52,21 42,21M-14,-57C-21,-59 -19,-68 -16,-68C-13,-68 -8,-61 -14,-57M5,-56C0,-63 4,-70 9,-69C14,-68 14,-56 5,-56" style="fill:rgb(238,238,238);fill-rule:nonzero;"/>
            <g>
                <path d="M-41,31L-20,61C-9,68 -15,96 -45,82C-62,77 -76,78 -78,69C-80,60 -74,59 -75,55C-79,33 -61,44 -56,33C-51,22 -51,17 -41,31M71,45C67,39 71,28 57,29C51,41 34,53 33,29C23,29 30,53 26,64C17,91 43,93 54,80L80,62C82,59 85,56 71,45M-21,-47C-24,-53 -10,-61 -5,-61C0,-61 7,-57 14,-55C21,-53 18,-46 16,-45C14,-44 3,-35 -5,-35C-13,-35 -15,-43 -21,-47" style="fill:rgb(255,204,34);fill-rule:nonzero;stroke:rgb(51,51,51);stroke-width:1px;"/>
                <path d="M-21,-48C-13,-42 -4,-37 14,-51" style="fill:rgb(255,204,34);fill-rule:nonzero;stroke:rgb(51,51,51);stroke-width:1px;"/>
            </g>
            <path d="M-10,-54C-12,-54 -9,-56 -8,-55M-1,-54C0,-55 -2,-56 -4,-55" style="fill:rgb(51,51,51);fill-rule:nonzero;"/>
        </g>
        <g id="chrome" transform="matrix(0.608947,0,0,0.608947,48.4549,0.923379)">
            <path d="M13.791,17.181C13.187,17.401 12.555,17.512 11.907,17.512C10.635,17.512 9.394,17.065 8.411,16.255C7.614,15.597 7.02,14.732 6.693,13.75L6.691,13.744L1.936,5.509C0.228,8.136 -0.378,11.268 0.23,14.349C0.849,17.487 2.653,20.196 5.31,21.976C6.694,22.904 8.227,23.523 9.867,23.816L13.791,17.181Z" style="fill:rgb(74,174,72);"/>
        </g>
    </g>
</svg>
